<svg clip-rule="evenodd" fill-rule="evenodd" image-rendering="optimizeQuality" shape-rendering="geometricPrecision" text-rendering="geometricPrecision" viewBox="0 0 1706.66 1706.66" xmlns="http://www.w3.org/2000/svg" xmlns:xodm="http://www.corel.com/coreldraw/odm/2003">
	<g id="Layer_x0020_1">
		<g id="_1679618160384">
			<path d="m28.33 1340.26c-13.06 0-22.75-12.41-19.33-25.17l122.28-456.49c38.35-143.15 186.56-228.78 329.72-190.37 14.89 4 19.83 22.76 8.84 33.56l-112.41 110.42c64.85 93.89 71.93 68.66-54.65 145.1l46.61 80.72c5.51 9.55 2.25 21.78-7.31 27.3l-92.98 53.68 26.88 100.29c6.71 25.03-31.54 36.51-38.8 9.69-37.61-4.45-128.61-7.99-177.65 51.97-8.5 16.59-4.83 59.33-31.19 59.33z" fill="#d7d7d7"/>
			<path d="m1172.77 1135.95c-7.69 0-15.02-4.45-18.31-11.93-35.29-80.22-147.15-86.74-148.28-86.8-7.13-.36-13.54-4.49-16.78-10.85-1.93-3.74-192.74-376.33-270.37-548.55-80.98-179.59 31.61-453.34 36.44-464.92 6.1-14.6 26.09-16.59 34.96-3.52 4.3 6.33 432.28 636.68 623.27 967.47 11.49 19.91-13.48 37.67-28.74 26.64l-193.5 107.69c2.78 14.72-3.26 24.78-18.7 24.78z" fill="#d7d7d7"/>
			<path d="m1614.31 1262.23c-14.45 0-18.95-12.83-26.26-25.49-70.7-16.52-331.98-9.65-409.59-7.18-4.18 14.74-26.81 22.33-36.87 4.91l-43.52-75.39c-5.51-9.55-2.25-21.77 7.31-27.3l333.85-192.74c9.5-5.5 21.76-2.25 27.3 7.31l165.07 285.9c7.74 13.41-2.1 29.98-17.29 29.98z" fill="#717172" style="fill: rgb(0, 128, 255);"/>
			<path d="m1546.63 1706.02h-1386.61c-87.37 0-158.45-71.09-158.45-158.46v-184.64c0-87.37 71.09-158.45 158.45-158.45h1386.61c87.37 0 158.45 71.08 158.45 158.45v184.64c0 87.38-71.09 158.47-158.45 158.47z" fill="#bebebe" style="fill: rgb(0, 0, 255);"/>
			<path d="m1309.52 1577.23h-912.38c-46.22 0-93.74-62.74-33.05-62.74 80.35 0 71.78-124.72-8.26-113.56-40.97 5.71-23.18-67.66 41.33-67.66h912.37c64.31 0 82.46 73.18 41.34 67.67-84.78-11.35-85.98 122.3-1.93 113.21 39.16-4.24 23.95 63.07-39.43 63.07z" fill="#717172" style="fill: rgb(0, 128, 255);"/>
			<g fill="#fff">
				<path d="m177.8 1489.82c-54.64 0-99.09-44.45-99.09-99.11 0-54.65 44.46-99.11 99.09-99.11s99.09 44.45 99.09 99.11c0 54.65-44.45 99.11-99.09 99.11z" fill="#fff"/>
				<path d="m1528.89 1489.82c-54.65 0-99.13-44.45-99.13-99.11 0-54.65 44.47-99.11 99.13-99.11s99.11 44.45 99.11 99.11c0 54.65-44.47 99.11-99.11 99.11z" fill="#fff"/>
			</g>
		</g>
	</g>
</svg>